<?xml version="1.0"?>
<svg xmlns="http://www.w3.org/2000/svg" xmlns:xlink="http://www.w3.org/1999/xlink" version="1.1" id="Capa_1" x="0px" y="0px" viewBox="0 0 490 490" style="enable-background:new 0 0 490 490;" xml:space="preserve" width="512px" height="512px"><g><path d="M420.914,0H69.086C30.999,0,0,30.991,0,69.086v351.829C0,459.001,30.999,490,69.086,490h351.829  C459.001,490,490,459.001,490,420.914V69.086C490,30.991,459.001,0,420.914,0z M116.519,207.107l28.278-28.281l-28.278-28.281  l21.653-21.653l28.277,28.28l28.277-28.28l21.653,21.653l-28.278,28.281l28.278,28.281l-21.653,21.653l-28.277-28.28l-28.277,28.28  L116.519,207.107z M156.265,349.286l-6.311-29.967l188.057-39.522l6.31,29.967L156.265,349.286z M373.481,207.107l-21.653,21.653  l-28.277-28.28l-28.277,28.28l-21.653-21.653l28.278-28.281l-28.278-28.281l21.653-21.653l28.277,28.28l28.277-28.28l21.653,21.653  l-28.278,28.281L373.481,207.107z" data-original="#000000" class="active-path" data-old_color="#000000" fill="#ffffffc7"/></g> </svg>
