<svg width="220" height="220" xmlns="http://www.w3.org/2000/svg">
 <!-- Created with Method Draw - http://github.com/duopixel/Method-Draw/ -->

 <g>
  <title>background</title>
  <rect fill="none" id="canvas_background" height="222" width="222" y="-1" x="-1"/>
  <g display="none" overflow="visible" y="0" x="0" height="100%" width="100%" id="canvasGrid">
   <rect fill="url(#gridpattern)" stroke-width="0" y="0" x="0" height="100%" width="100%"/>
  </g>
 </g>
 <g>
  <title>Layer 1</title>
  <style type="text/css">.st0{fill:#FFFFFF;}
	.st1{fill:#FF8D11;}</style>
  <ellipse stroke="#000" ry="108" rx="107.99999" id="svg_12" cy="110" cx="110.5" stroke-width="1.5" fill="#313131"/>
  <g id="svg_8">
   <g transform="matrix(0.533903 0 0 0.533903 0 0)" id="svg_5">
    <path id="svg_6" d="m355.84891,141.87993l0,128.29991c0,1.29996 -0.40002,2.29996 -1.30005,3.19998c-0.89996,0.90002 -1.89996,1.29996 -3.20001,1.29996l-28.19995,0c-1.20001,0 -2.29999,-0.39993 -3.20001,-1.29996c-0.89996,-0.90002 -1.29999,-1.90002 -1.29999,-3.19998l0,-60.49989c0,-1.19998 -0.59998,-1.89996 -1.70001,-2.09998c-1.09998,-0.10001 -2.09998,0.29999 -2.79999,1.29999l-31.60004,50.89998c-0.59998,1 -1.59998,1.5 -3,1.5c-1.39996,0 -2.5,-0.5 -3.20001,-1.5l-31.59987,-50.89998c-0.59998,-1 -1.5,-1.39999 -2.59998,-1.29999c-1.10004,0.09998 -1.70001,0.79999 -1.70001,2.09998l0,60.49989c0,1.29996 -0.40002,2.29996 -1.29999,3.19998c-0.90002,0.90002 -1.90002,1.29996 -3.20001,1.29996l-28.20001,0c-1.20001,0 -2.29999,-0.39993 -3.20001,-1.29996c-0.90002,-0.90002 -1.29999,-1.90002 -1.29999,-3.19998l0,-128.29991c0,-1.19998 0.39996,-2.29999 1.29999,-3.19998s1.90002,-1.29999 3.20001,-1.29999l26.20001,0c1.20001,0 2.59998,0.39999 3.90002,1.10001c1.39996,0.69998 2.39996,1.60001 3,2.60001l36.19984,53c0.80005,1 1.60004,1.5 2.60004,1.5s1.79999,-0.5 2.40002,-1.5l36.19995,-53c0.70001,-1 1.80005,-1.90002 3.20001,-2.60001c1.40002,-0.70001 2.70001,-1.10001 3.89996,-1.10001l26.20001,0c1.20001,0 2.30005,0.39999 3.20001,1.29999c0.70001,0.89999 1.10004,2 1.10004,3.19998z" class="st0"/>
    <path id="svg_7" d="m188.04897,269.67981c-4.09998,-5.49994 -8.79999,-11.59985 -14.09998,-18.19984c-5.30005,-6.60001 -10.30005,-13.10001 -15,-19.39999c-0.79999,-1 -1,-2 -0.70001,-3.09998c0.29999,-1.10004 1,-2 2,-2.70001c3,-1.90002 5.70001,-4.20001 8.09998,-7c2.40002,-2.80002 4.40002,-6 6.20001,-9.5c1.79999,-3.5 3.09998,-7.20001 4,-11.20001c0.90002,-3.90002 1.40002,-7.90002 1.40002,-11.90002c0,-7.29999 -1.20001,-13.89996 -3.70001,-19.89996c-2.39996,-6 -5.79999,-11.20004 -10.09998,-15.60004c-4.29999,-4.39999 -9.60004,-7.79999 -15.70001,-10.20001c-6.10004,-2.39999 -12.79999,-3.70001 -20.10004,-3.70001l-58.39996,0c-1.29999,0 -2.29999,0.40002 -3.20001,1.30002c-0.90005,0.90002 -1.29999,1.90002 -1.29999,3.20001l0,25.89999l57,0c10.29999,0 18.79999,8.5 18.79999,18.80002c0,10.30002 -8.5,18.80002 -18.79999,18.80002l-57,0l0,64.99986c0,1.29999 0.39993,2.29999 1.29999,3.19995c0.90002,0.90002 2,1.29999 3.20001,1.29999l28.09998,0c1.29999,0 2.29999,-0.39996 3.20001,-1.29999c0.90002,-0.89996 1.29999,-1.89996 1.29999,-3.19995l0,-30.39989c0,-1.29999 0.40002,-2.29999 1.29996,-3.20001c0.90005,-0.89996 1.90005,-1.29999 3.20004,-1.29999l4.20001,0c1.20001,0 2.59995,0.29999 3.90002,1c1.39996,0.70001 2.39996,1.5 3.19995,2.5c3.90002,5.5 7.80005,11 11.70001,16.29999c3.90002,5.39995 7.90002,10.69994 11.90002,15.99986c0.79999,1 1.79999,1.90002 3.29999,2.49997c1.40002,0.70004 2.79999,1 4,1l34.90002,0c1.29999,0 2.09998,-0.59995 2.39996,-1.79996c0.40002,-1.09998 0.20001,-2.20001 -0.5,-3.20001z" class="st1"/>
   </g>
  </g>
 </g>
</svg>