<svg width="213" height="192" xmlns="http://www.w3.org/2000/svg">
 <!-- Created with Method Draw - http://github.com/duopixel/Method-Draw/ -->

 <g>
  <title>background</title>
  <rect fill="none" id="canvas_background" height="194" width="215" y="-1" x="-1"/>
  <g display="none" overflow="visible" y="0" x="0" height="100%" width="100%" id="canvasGrid">
   <rect fill="url(#gridpattern)" stroke-width="0" y="0" x="0" height="100%" width="100%"/>
  </g>
 </g>
 <g>
  <title>Layer 1</title>
  <g stroke="null" id="svg_6">
   <g stroke="null" transform="matrix(0.408203 0 0 0.412578 -1.305 0.201587)" id="svg_4">
    <path stroke="null" id="svg_5" fill="#afafaf" class="active-path" d="m481.92908,49.01489c-26.50388,-28.7461 -62.87122,-44.57813 -102.41013,-44.57813c-29.55484,0 -56.62112,9.34375 -80.44925,27.76954c-12.02341,9.30078 -22.91797,20.67969 -32.52356,33.96093c-9.60156,-13.27734 -20.49998,-24.66015 -32.52733,-33.96093c-23.82422,-18.42579 -50.89063,-27.76954 -80.44525,-27.76954c-39.53913,0 -75.91016,15.83203 -102.41413,44.57813c-26.1875,28.41015 -40.61328,67.22265 -40.61328,109.29296c0,43.30078 16.13672,82.9375 50.78125,124.74217c30.99219,37.39453 75.53522,75.35547 127.1172,119.3125c17.61328,15.01172 37.57813,32.02734 58.30859,50.15234c5.47656,4.79688 12.50395,7.4375 19.79295,7.4375c7.28528,0 14.31659,-2.64063 19.78516,-7.42969c20.73059,-18.12891 40.70703,-35.15234 58.32831,-50.17188c51.57416,-43.94922 96.11716,-81.90625 127.10931,-119.30469c34.64456,-41.80077 50.77722,-81.43748 50.77722,-124.74217c0,-42.0664 -14.42566,-80.8789 -40.61707,-109.28905zm0,0"/>
   </g>
  </g>
  <g stroke="null" id="svg_12">
   <g stroke="null" transform="matrix(0.384766 0 0 0.370867 -0.180164 23.9097)" id="svg_10">
    <path stroke="null" id="svg_11" fill="#ffffff" class="active-path" d="m495.24197,7.15868c-26.50391,-28.74609 -62.87122,-44.57812 -102.41016,-44.57812c-29.55481,0 -56.62109,9.34375 -80.44922,27.76953c-12.02344,9.30078 -22.91797,20.67969 -32.52338,33.96094c-9.60156,-13.27734 -20.50018,-24.66016 -32.52754,-33.96094c-23.82422,-18.42578 -50.89063,-27.76953 -80.44525,-27.76953c-39.53911,0 -75.91015,15.83203 -102.41412,44.57812c-26.1875,28.41015 -40.61328,67.22266 -40.61328,109.29299c0,43.30079 16.13665,82.93751 50.78125,124.7422c30.99219,37.39452 75.53521,75.35545 127.11718,119.31248c17.61328,15.01172 37.57813,32.02734 58.30879,50.15234c5.4765,4.79688 12.50385,7.4375 19.79297,7.4375c7.2851,0 14.31641,-2.64063 19.78497,-7.42969c20.73059,-18.12891 40.70703,-35.15234 58.32831,-50.17188c51.57416,-43.94922 96.11713,-81.90625 127.10931,-119.30467c34.6445,-41.80078 50.77719,-81.4375 50.77719,-124.7422c0,-42.06642 -14.42566,-80.87893 -40.61703,-109.28908zm0,0"/>
   </g>
  </g>
 </g>
</svg>