<?xml version="1.0"?>
<svg xmlns="http://www.w3.org/2000/svg" height="512" version="1.1" viewBox="-58 1 511 511.99995" width="512" class=""><g><g id="surface1">
<path d="M 238.890625 266.835938 C 238.890625 259.523438 236.996094 252.75 233.609375 246.925781 L 178.347656 302.1875 C 184.304688 305.574219 191.078125 307.46875 198.257812 307.46875 C 220.605469 307.46875 238.890625 289.183594 238.890625 266.835938 Z M 238.890625 266.835938 " style="fill:#FFFFFF" data-original="#000000" class="active-path" data-old_color="#000000"/>
<path d="M 198.257812 204.53125 C 211.53125 204.53125 223.859375 208.726562 233.878906 215.773438 L 245.121094 204.53125 C 230.492188 197.757812 214.644531 193.421875 198.257812 193.421875 C 140.285156 193.421875 90.167969 247.875 74.457031 266.835938 C 83.667969 277.808594 104.390625 300.835938 131.617188 318.171875 L 147.328125 302.460938 C 140.285156 292.300781 136.085938 280.109375 136.085938 266.835938 C 135.949219 232.566406 163.988281 204.53125 198.257812 204.53125 Z M 198.257812 204.53125 " style="fill:#FFFFFF" data-original="#000000" class="active-path" data-old_color="#000000"/>
<path d="M 257.855469 88.3125 L 257.855469 0 L 49.804688 0 C 22.847656 0 0.5 22.214844 0.5 49.167969 L 0.5 462.832031 C 0.5 489.789062 22.847656 512 49.804688 512 L 346.710938 512 C 373.664062 512 396.011719 489.785156 396.011719 462.832031 L 396.011719 144.929688 L 314.605469 144.929688 C 283.183594 144.929688 257.855469 119.601562 257.855469 88.3125 Z M 309.730469 440.210938 L 86.78125 440.210938 C 80.820312 440.210938 75.945312 435.335938 75.945312 429.375 C 75.945312 423.414062 80.820312 418.539062 86.78125 418.539062 L 309.867188 418.539062 C 315.828125 418.539062 320.703125 423.414062 320.703125 429.375 C 320.703125 435.335938 315.828125 440.210938 309.730469 440.210938 Z M 344.679688 260.46875 C 347.523438 264.261719 347.523438 269.410156 344.679688 273.203125 C 341.96875 276.859375 278.984375 361.785156 198.257812 361.785156 C 175.5 361.785156 154.101562 355.011719 135.136719 345.261719 L 104.390625 376.007812 C 102.222656 378.175781 99.515625 379.125 96.667969 379.125 C 93.824219 379.125 91.117188 378.039062 88.949219 376.007812 C 84.75 371.808594 84.75 364.902344 88.949219 360.703125 L 115.765625 333.882812 C 78.113281 308.691406 53.460938 275.503906 51.835938 273.203125 C 48.992188 269.410156 48.992188 264.261719 51.835938 260.46875 C 54.542969 256.8125 117.527344 171.886719 198.257812 171.886719 C 221.011719 171.886719 242.414062 178.65625 261.375 188.410156 L 292.125 157.664062 C 296.324219 153.464844 303.230469 153.464844 307.429688 157.664062 C 311.628906 161.863281 311.628906 168.769531 307.429688 172.96875 L 280.609375 199.789062 C 318.265625 224.847656 343.050781 258.167969 344.679688 260.46875 Z M 344.679688 260.46875 " style="fill:#FFFFFF" data-original="#000000" class="active-path" data-old_color="#000000"/>
<path d="M 314.609375 123.257812 L 381.113281 123.257812 L 279.527344 16.660156 L 279.527344 88.3125 C 279.527344 107.683594 295.101562 123.257812 314.609375 123.257812 Z M 314.609375 123.257812 " style="fill:#FFFFFF" data-original="#000000" class="active-path" data-old_color="#000000"/>
<path d="M 157.621094 266.835938 C 157.621094 274.148438 159.519531 280.921875 162.90625 286.746094 L 218.167969 231.484375 C 212.207031 228.097656 205.4375 226.199219 198.257812 226.199219 C 175.90625 226.199219 157.621094 244.488281 157.621094 266.835938 Z M 157.621094 266.835938 " style="fill:#FFFFFF" data-original="#000000" class="active-path" data-old_color="#000000"/>
<path d="M 249.1875 231.214844 C 256.230469 241.371094 260.425781 253.5625 260.425781 266.835938 C 260.425781 301.105469 232.523438 329.144531 198.121094 329.144531 C 184.847656 329.144531 172.519531 324.945312 162.496094 317.902344 L 151.253906 329.144531 C 165.882812 335.914062 181.730469 340.25 198.121094 340.25 C 256.09375 340.25 306.210938 285.800781 321.921875 266.835938 C 312.710938 255.867188 291.988281 232.839844 264.761719 215.503906 Z M 249.1875 231.214844 " style="fill:#FFFFFF" data-original="#000000" class="active-path" data-old_color="#000000"/>
</g></g> </svg>
