<?xml version="1.0" encoding="utf-8"?>
<svg xmlns="http://www.w3.org/2000/svg" xmlns:xlink="http://www.w3.org/1999/xlink" style="margin: auto; background-image: none; display: block; shape-rendering: auto; background-position: initial initial; background-repeat: initial initial;" width="227px" height="227px" viewBox="0 0 100 100" preserveAspectRatio="xMidYMid">
<g transform="translate(50 50)">
<g>
<animateTransform attributeName="transform" type="rotate" values="0;36" keyTimes="0;1" dur="0.4484304932735426s" repeatCount="indefinite"></animateTransform><path d="M31.432467291003423 -6 L39.43246729100342 -6 L39.43246729100342 6 L31.432467291003423 6 A32 32 0 0 1 28.956111727311274 13.62143875056767 L28.956111727311274 13.62143875056767 L35.428247682310854 18.323720768907457 L28.374824654801177 28.031924701406822 L21.902688699801597 23.32964268306704 A32 32 0 0 1 15.419505665825652 28.03995087409339 L15.419505665825652 28.03995087409339 L17.891641620825233 35.648403004454615 L6.47896342528338 39.35660693695399 L4.0068274702838 31.748154806592762 A32 32 0 0 1 -4.006827470283796 31.748154806592762 L-4.006827470283796 31.748154806592762 L-6.478963425283375 39.35660693695399 L-17.891641620825222 35.64840300445462 L-15.419505665825644 28.039950874093392 A32 32 0 0 1 -21.90268869980159 23.329642683067046 L-21.90268869980159 23.329642683067046 L-28.37482465480117 28.03192470140683 L-35.428247682310854 18.323720768907457 L-28.956111727311274 13.62143875056767 A32 32 0 0 1 -31.43246729100342 6.000000000000007 L-31.43246729100342 6.000000000000007 L-39.43246729100342 6.000000000000008 L-39.43246729100342 -5.999999999999999 L-31.432467291003423 -6 A32 32 0 0 1 -28.956111727311278 -13.621438750567664 L-28.956111727311278 -13.621438750567664 L-35.428247682310854 -18.32372076890745 L-28.374824654801177 -28.031924701406822 L-21.902688699801597 -23.32964268306704 A32 32 0 0 1 -15.419505665825653 -28.03995087409339 L-15.419505665825653 -28.03995087409339 L-17.891641620825233 -35.648403004454615 L-6.478963425283385 -39.35660693695399 L-4.006827470283804 -31.748154806592762 A32 32 0 0 1 4.006827470283792 -31.748154806592762 L4.006827470283792 -31.748154806592762 L6.47896342528337 -39.35660693695399 L17.89164162082522 -35.64840300445462 L15.419505665825643 -28.039950874093396 A32 32 0 0 1 21.902688699801587 -23.32964268306705 L21.902688699801587 -23.32964268306705 L28.374824654801163 -28.031924701406837 L35.42824768231085 -18.32372076890746 L28.95611172731127 -13.621438750567673 A32 32 0 0 1 31.43246729100342 -6.0000000000000115 M0 -22A22 22 0 1 0 0 22 A22 22 0 1 0 0 -22" fill="#fe9042"></path></g></g>
<!-- [ldio] generated by https://loading.io/ --></svg>