<svg width="782" height="358" xmlns="http://www.w3.org/2000/svg">
 <!-- Created with Method Draw - http://github.com/duopixel/Method-Draw/ -->

 <g>
  <title>background</title>
  <rect fill="#ffffff" id="canvas_background" height="360" width="784" y="-1" x="-1"/>
  <g display="none" overflow="visible" y="0" x="0" height="100%" width="100%" id="canvasGrid">
   <rect fill="url(#gridpattern)" stroke-width="0" y="0" x="0" height="100%" width="100%"/>
  </g>
 </g>
 <g>
  <title>Layer 1</title>
  <g id="svg_13">
   <g transform="matrix(0.402415 0 0 0.402415 0 0)" id="svg_5">
    <path id="svg_6" fill="#b5cdff" d="m526.10864,410.58051c0,-0.00104 -20.69611,-6.26205 -35.90393,-10.86206c-2.3371,-18.90799 -7.26111,-37.01398 -14.41809,-53.94803l25.63403,-27.32697c4.40405,-4.69797 5.43201,-11.89395 2.04602,-17.758c-3.38501,-5.86398 -10.13196,-8.57199 -16.401,-7.10599c0,-0.00098 -21.06799,4.92804 -36.53906,8.54803c-11.28491,-14.88803 -24.57092,-28.17404 -39.45898,-39.45908l8.54901,-36.539c1.46503,-6.26997 -1.24298,-13.01698 -7.10699,-16.40198c-5.86407,-3.386 -13.06104,-2.35803 -17.75702,2.047c-0.00092,0 -15.74298,14.76695 -27.32794,25.63402c-16.93414,-7.15704 -35.04004,-12.08105 -53.94806,-14.41801l-10.86102,-35.90401c-1.86597,-6.16299 -7.58502,-10.65201 -14.35602,-10.65201s-12.48993,4.48901 -14.35394,10.651c-0.00104,0 -6.26196,20.69603 -10.86206,35.90396c-18.90793,2.33704 -37.0139,7.26105 -53.94792,14.41803l-27.32703,-25.63403c-4.698,-4.40398 -11.89397,-5.43195 -17.758,-2.04594c-5.86395,3.38499 -8.57195,10.132 -7.10602,16.40099c-0.00104,0 4.92804,21.06799 8.54805,36.53902c-14.88806,11.28494 -28.17407,24.57098 -39.459,39.45901l-36.539,-8.54901c-6.27008,-1.465 -13.01599,1.24304 -16.40204,7.10699s-2.35797,13.06104 2.047,17.75702c0,0.00104 14.76605,15.74295 25.63306,27.328c-7.1571,16.93402 -12.08105,35.03998 -14.41809,53.948l-35.90396,10.86102c-6.16199,1.86594 -10.651,7.58496 -10.651,14.35596s4.48901,12.49005 10.651,14.354c0,0.00104 20.69595,6.26202 35.90396,10.862c2.33704,18.90802 7.26099,37.01395 14.41809,53.948l-25.63409,27.32703c-4.40393,4.698 -5.43195,11.89404 -2.04596,17.758s10.13196,8.57202 16.401,7.10602c0,0.00098 21.06799,-4.92804 36.53906,-8.54797c11.28491,14.88794 24.571,28.17395 39.459,39.45898l-8.54909,36.53894c-1.46497,6.27002 1.24306,13.01605 7.10706,16.40204s13.06097,2.35797 17.75696,-2.047c0.00104,0 15.74304,-14.76703 27.32806,-25.63397c16.93391,7.15698 35.03993,12.08093 53.94792,14.41797l10.86096,35.90399c1.86609,6.16296 7.58502,10.65204 14.35602,10.65204s12.49005,-4.48907 14.354,-10.651c0.00098,0 6.26202,-20.69604 10.862,-35.90405c18.90808,-2.33698 37.01398,-7.26099 53.94794,-14.41797l27.32709,25.63403c4.698,4.40393 11.89404,5.43195 17.75806,2.04596c5.86395,-3.38501 8.57202,-10.13202 7.1059,-16.401c0.00104,0 -4.92798,-21.06696 -8.54791,-36.539c14.88806,-11.28503 28.17395,-24.57098 39.45898,-39.45898l36.53906,8.54895c6.27002,1.46503 13.01599,-1.24292 16.40198,-7.10693s2.35803,-13.06104 -2.047,-17.75702c0,-0.00104 -14.76715,-15.74298 -25.63403,-27.328c7.15698,-16.93402 12.08105,-35.03998 14.41791,-53.948l35.90411,-10.86102c6.1629,-1.86597 10.65198,-7.58502 10.65198,-14.35602s-4.48907,-12.49002 -10.651,-14.35394zm-237.84906,157.854c-79.25298,0 -143.49991,-64.24707 -143.49991,-143.50006s64.24693,-143.49997 143.49991,-143.49997s143.50006,64.24698 143.50006,143.49997s-64.24707,143.50006 -143.50006,143.50006z"/>
    <path id="svg_7" fill="#8b9bbd" d="m288.25958,251.43446c-95.82089,0 -173.49992,77.679 -173.49992,173.49998c0,95.82202 77.67903,173.50006 173.49992,173.50006s173.50006,-77.67804 173.50006,-173.50006c0,-95.82098 -77.67896,-173.49998 -173.50006,-173.49998zm0,302.00005c-70.96898,0 -128.49991,-57.53101 -128.49991,-128.50006s57.53093,-128.49994 128.49991,-128.49994s128.50006,57.53094 128.50006,128.49994s-57.53101,128.50006 -128.50006,128.50006z"/>
    <path id="svg_8" fill="#ff9457" d="m203.96768,376.26447c-0.64601,1.11304 -1,2.39502 -1.00502,3.72601l0,89.86401c0,2.67902 1.42891,5.15497 3.75,6.495l77.79991,44.91998c1.16101,0.66998 2.45508,0.992 3.75,0.98999l55.30005,-146.57401l-139.59494,0.57901z"/>
    <path id="svg_9" fill="#ff6145" d="m372.55853,376.26447l-84.29895,-0.57996l55.30414,115.82095l26.24988,-15.15598c2.32007,-1.34003 3.75012,-3.81598 3.75012,-6.495l0,-89.86401c-0.00519,-1.33099 -0.35901,-2.61298 -1.00519,-3.72601z"/>
    <path id="svg_10" fill="#ff7e4f" d="m288.26367,375.68451l0,146.58997c1.29492,0 2.58997,-0.33502 3.74988,-1.005l51.54999,-29.763l0,-98.5l-55.29987,-17.32196z"/>
    <path id="svg_11" fill="#ff9457" d="m369.8147,373.52243l-77.80212,-44.92294c-2.31995,-1.34003 -5.17896,-1.34003 -7.5,0l-38.89989,22.45599l14.99998,49.26001l70.29993,0l41.64496,-24.05008c-0.64691,-1.12097 -1.58295,-2.07397 -2.74286,-2.74298z"/>
    <path id="svg_12" fill="#ffae6b" d="m245.61958,351.05847l-38.909,22.46396c-1.15898,0.66901 -2.09601,1.62201 -2.7429,2.74203l84.29489,48.66998l42.65002,-24.62l-85.29301,-49.25598z"/>
   </g>
  </g>
  <text transform="matrix(11.3151 0 0 11.4059 -4607.42 -3064.89)" stroke="#000" xml:space="preserve" text-anchor="start" font-family="Helvetica, Arial, sans-serif" font-size="10" id="svg_14" y="290.22321" x="426.82529" stroke-width="0" fill="#000000">Компания</text>
  <text transform="matrix(44.5056 0 0 8.55495 -18946.7 -1490.69)" stroke="#000" xml:space="preserve" text-anchor="start" font-family="Helvetica, Arial, sans-serif" font-size="10" id="svg_15" y="195" x="435.5" fill-opacity="null" stroke-opacity="null" stroke-width="0" fill="#000000"/>
  <text transform="matrix(9.56744 0 0 8.5602 -3837.26 -1058.06)" stroke="#000" xml:space="preserve" text-anchor="start" font-family="Helvetica, Arial, sans-serif" font-size="10" id="svg_16" y="140.17359" x="424.39806" fill-opacity="null" stroke-opacity="null" stroke-width="0" fill="#000000">Ваша</text>
  <line stroke="#fe9042" stroke-width="12" stroke-linecap="null" stroke-linejoin="null" id="svg_17" y2="262" x2="751" y1="262" x1="228" fill="none"/>
 </g>
</svg>