<?xml version="1.0"?>
<svg xmlns="http://www.w3.org/2000/svg" height="512" version="1.1" viewBox="-58 1 511 511.99995" width="512"><g><g id="surface1">
<path d="M 257.855469 88.3125 L 257.855469 0 L 49.804688 0 C 22.847656 0 0.5 22.214844 0.5 49.167969 L 0.5 462.832031 C 0.5 489.789062 22.847656 512 49.804688 512 L 346.710938 512 C 373.664062 512 396.011719 489.785156 396.011719 462.832031 L 396.011719 144.929688 L 314.605469 144.929688 C 283.183594 144.929688 257.855469 119.601562 257.855469 88.3125 Z M 309.730469 440.210938 L 86.78125 440.210938 C 80.820312 440.210938 75.945312 435.335938 75.945312 429.375 C 75.945312 423.414062 80.820312 418.539062 86.78125 418.539062 L 309.867188 418.539062 C 315.828125 418.539062 320.703125 423.414062 320.703125 429.375 C 320.703125 435.335938 315.828125 440.210938 309.730469 440.210938 Z M 344.679688 260.46875 C 347.523438 264.261719 347.523438 269.410156 344.679688 273.203125 C 341.96875 276.859375 278.984375 361.785156 198.257812 361.785156 C 117.527344 361.785156 54.546875 276.722656 51.835938 273.203125 C 48.992188 269.410156 48.992188 264.261719 51.835938 260.46875 C 54.546875 256.8125 117.527344 171.886719 198.257812 171.886719 C 278.984375 171.75 341.96875 256.8125 344.679688 260.46875 Z M 344.679688 260.46875 " style="fill:#FFFFFF" data-original="#000000" class="active-path" data-old_color="#000000"/>
<path d="M 314.609375 123.257812 L 381.113281 123.257812 L 279.527344 16.660156 L 279.527344 88.3125 C 279.527344 107.683594 295.101562 123.257812 314.609375 123.257812 Z M 314.609375 123.257812 " style="fill:#FFFFFF" data-original="#000000" class="active-path" data-old_color="#000000"/>
<path d="M 74.457031 266.835938 C 90.167969 285.796875 140.421875 340.25 198.257812 340.25 C 256.230469 340.25 306.347656 285.796875 322.058594 266.835938 C 306.347656 247.871094 256.09375 193.421875 198.257812 193.421875 C 140.285156 193.421875 90.167969 247.871094 74.457031 266.835938 Z M 260.5625 266.835938 C 260.5625 301.105469 232.660156 329.144531 198.257812 329.144531 C 163.851562 329.144531 135.949219 301.238281 135.949219 266.835938 C 135.949219 232.429688 163.851562 204.527344 198.257812 204.527344 C 232.660156 204.527344 260.5625 232.566406 260.5625 266.835938 Z M 260.5625 266.835938 " style="fill:#FFFFFF" data-original="#000000" class="active-path" data-old_color="#000000"/>
<path d="M 238.890625 266.835938 C 238.890625 289.277344 220.699219 307.46875 198.257812 307.46875 C 175.816406 307.46875 157.621094 289.277344 157.621094 266.835938 C 157.621094 244.394531 175.816406 226.199219 198.257812 226.199219 C 220.699219 226.199219 238.890625 244.394531 238.890625 266.835938 Z M 238.890625 266.835938 " style="fill:#FFFFFF" data-original="#000000" class="active-path" data-old_color="#000000"/>
</g></g> </svg>
